<svg id="Layer_1" data-name="Layer 1" xmlns="http://www.w3.org/2000/svg" viewBox="0 0 292.83 407.14"><defs><style>.cls-1{fill:#337387;}.cls-2{fill:#fdfaf3;}.cls-3{fill:#cde3de;}</style></defs><path class="cls-1" d="M1011.92,874.45c-.08,11.82-.26,23.64-.2,35.46a9.42,9.42,0,0,1-3.29,7.72c-1.61,1.4-3.06,3-4.61,4.46-.8.76-1.64,1.94-2.81,1.51-1.49-.55-.9-2.14-.93-3.29-.17-10.13-.33-20.26-.41-30.38a4.19,4.19,0,0,0-2.15-4.09c-12.28-7.81-18.38-19.16-18.39-33.64q-.09-78.18,0-156.36c0-41,.71-82-.23-122.93-.56-24.4,18.73-47.26,40.64-53.32,10.36-2.87,20.83-2.89,31.33-2.91q83.57-.2,167.15-.11c27,0,48.56,19,52.78,44.08,1.44,8.58.77,17.3.77,26,0,69.35.38,138.7-.36,208-.17,15.69-1,31.43-1.35,47.16-.31,13.28-5,25.08-15.15,33.77a46.3,46.3,0,0,1-26.93,11.26c-4.83.36-9.66.47-14.5.47q-87.63-.07-175.26-.17c-2.93,0-3.53.93-3.49,3.62.16,10,.11,20,.09,30,0,.91.61,2.2-.69,2.67-1.08.39-1.89-.44-2.61-1.19a3,3,0,0,0-.45-.49c-6.67-4.63-8.52-11-8-18.94.59-9.64-.34-19.34.15-29,.06-2.7,0-5.42.23-8.1a5.23,5.23,0,0,1,5.41-4.94,5.1,5.1,0,0,1,5.49,4.79,21.22,21.22,0,0,1,.31,5.38c-.36,3.06.83,3.66,3.74,3.66q92-.12,184,0a40.94,40.94,0,0,0,15.72-2.94c11.54-4.7,20.33-16.76,20.32-28.16a99.86,99.86,0,0,0,0-12.83l-.84-.44c-.83,1-1.66,2.07-2.48,3.11-.43,0-.7.21-.71.66l0-.13c-10,7.89-21.53,9.54-33.94,9.49-60.07-.25-120.14-.13-180.21-.12-9.11,0-18.23-.06-27.33.23-6.46.2-11.57,3.39-15.42,8.5-4.24,5.61-4.61,16,2.39,20.41.24-2.39-.13-4.76.55-7,1-3.24,3.6-5.4,6.28-5.08,3,.37,5.12,2.92,5.25,6.45C1011.84,869.28,1011.87,871.87,1011.92,874.45Zm247.57-191.79h-.07V681c0-37.83.06-75.66-.13-113.49-.11-21.41-17.56-38.81-38.59-38.83q-92-.06-184.06,0a41.83,41.83,0,0,0-12,1.38c-2.67.8-5.45,1.73-7.3,3.84-1.27,1.45,0,3.56,0,5.37-.11,11.71,0,23.42,0,35.13q0,106.93-.07,213.86c0,12.95.08,25.9-.08,38.84,0,2.88.54,3.78,3.62,3.78q102.66-.06,205.32.09c8.73,0,16.55-2.68,22.91-9,7.46-7.41,10.61-16.36,10.57-26.82C1259.41,757.63,1259.49,720.14,1259.49,682.66ZM990.78,763.91c4.29-3.64,8.28-6,13.07-6.85,2.32-.4,3.57-1.54,3.57-4.23,0-40.87,0-81.74,0-122.61,0-2.73,1.26-6.92-.75-7.84-2.44-1.11-5.46,1.75-8,3.46-5.31,3.64-8.15,8.1-8.09,15.13.32,37.94.15,75.89.16,113.84Zm.35-181c4.67-4,9.33-7.17,14.81-8.8,1.77-.52,1.39-1.81,1.38-3q-.11-15-.28-30.05c0-.51.15-1.17-.64-1.32C990.31,552.51,989.88,561.89,991.13,582.88Zm-.32,258.82c4.64-4.9,9.45-8.05,15.15-9.71a2,2,0,0,0,1.53-2.24q-.12-12.32-.11-24.63c0-1.86-.64-2-2.21-1.4-4.11,1.67-8,3.71-11,7-1.53,1.62-3.3,3.21-3.32,5.68C990.78,824.53,990.81,832.68,990.81,841.7Zm-.09-223.13c2.86-2,5.17-3.77,7.57-5.38a26.94,26.94,0,0,1,7.92-3.61c1.53-.42,1.19-1.71,1.19-2.78,0-4.15,0-8.3,0-12.46,0-9.42-.2-9.71-8.17-4.62-4.81,3.06-8.77,7.25-8.56,13.81C990.84,608.34,990.72,613.17,990.72,618.57Zm.13,180.48c4.94-4,9.77-6.68,15.27-8,1.11-.27,1.25-1.21,1.25-2.13,0-7.15,0-14.29,0-21.53-4.86,2-9.31,3.94-12.82,7.53-1.84,1.87-3.62,3.84-3.68,6.6C990.77,787.08,990.85,792.65,990.85,799.05Z" transform="translate(-978.87 -516.55)"/><path class="cls-2" d="M1258.2,843.48c0,11.4-8.78,23.46-20.32,28.16a40.94,40.94,0,0,1-15.72,2.94q-92,0-184,0c-2.91,0-4.1-.6-3.74-3.66a21.22,21.22,0,0,0-.31-5.38,5.1,5.1,0,0,0-5.49-4.79,5.23,5.23,0,0,0-5.41,4.94c-.26,2.68-.17,5.4-.23,8.1-3.61,1.37-7.36.31-11,.62,0-2.58-.08-5.17-.18-7.75-.13-3.53-2.24-6.08-5.25-6.45-2.68-.32-5.32,1.84-6.28,5.08-.68,2.27-.31,4.64-.55,7-7-4.4-6.63-14.8-2.39-20.41,3.85-5.11,9-8.3,15.42-8.5,9.1-.29,18.22-.23,27.33-.23,60.07,0,120.14-.13,180.21.12,12.41,0,24-1.6,33.94-9.49a17.71,17.71,0,0,1-3.91,7.72c-7.33,7.58-16.12,12-26.85,12q-82.86,0-165.74,0a21.88,21.88,0,0,0-5,.34c-2.86.66-4.91,1.94-4.46,5.21s2.51,4,5.56,4q87.1-.07,174.19,0c6.17,0,11.67-2.1,16.86-5.1C1250.74,854.6,1254.29,848.85,1258.2,843.48Z" transform="translate(-978.87 -516.55)"/><path class="cls-2" d="M1259.49,682.66c0,37.48-.08,75,0,112.46,0,10.46-3.11,19.41-10.57,26.82-6.36,6.3-14.18,9-22.91,9q-102.66,0-205.32-.09c-3.08,0-3.66-.9-3.62-3.78.16-12.94.07-25.89.08-38.84q0-106.94.07-213.86c0-11.71-.08-23.42,0-35.13,0-1.81-1.23-3.92,0-5.37,1.85-2.11,4.63-3,7.3-3.84a41.83,41.83,0,0,1,12-1.38q92,0,184.06,0c21,0,38.48,17.42,38.59,38.83.19,37.83.1,75.66.13,113.49v1.69ZM1123.94,802.77h0c2.13,2.28,4.45,1.74,6.65.25s2.64-4,2.64-6.59c0-13.39.2-26.79-.1-40.18a19.75,19.75,0,0,1,4.81-13.9c1.17-1.41,2.66-2.89,1.7-5.12a1.78,1.78,0,0,1,.45-1.88c2.32-2.54,4.25-5.18,3.5-9-.1-.52.44-1.29.86-1.78,1.61-1.87,1.8-4.05,1.56-6.36l.8-1.15.6-.75h0c1.83.26,2.57-2.79,4.78-1.51,6,3.47,12.38,4.2,19.18,3,10.19-1.76,18.61-6.36,25-14.57,8.45-10.93,11.69-24.16,16-36.89,1.48-4.4.88-5-3.82-5.34-6.57-.43-13.09-1.19-19.75-.87-7.5.36-14.78,1.36-21.65,4.34-13,5.64-22.37,14.46-24.77,29.16-.7,4.29,0,8.51.51,12.74L1132,721.76c0-13.8.13-26.83,0-39.85-.14-10.19,1.58-19.84,7.11-28.55,3.3-5.19,6.23-10.69,11.07-14.74.59,1.43,1.93,1.78,3.21,2.21,9.4,3.24,20-.58,26.05-9.06,5.65-7.87,8-17,10.5-26.09,1.29-4.72.92-5.21-4-5.43a73.68,73.68,0,0,0-18.74,1.43c-14.69,3.13-26.31,14.1-22.36,29.08-2.07,2.45-4.11,4.92-6.22,7.33s-3.33,5.46-6,7.36l-.41-1.31q0-17.22,0-34.45a1.44,1.44,0,0,0,0-2l.07-1.27a16,16,0,0,0,9.52-9,27.11,27.11,0,0,0,.32-21.93,85.91,85.91,0,0,0-10.69-18.63c-4.47-5.92-4.8-6.18-9.38-.34-7.36,9.38-13.24,19.48-12.47,32.16.49,8.13,4.24,14,11.43,17.65.82,1.21.59,2.59.59,3.92,0,11.47,0,22.93,0,34.4,0,.77.56,1.74-.43,2.41l-12.23-15.66c2.4-7.59,0-14.33-5.1-19.56-10.79-11.09-24.66-12.64-39.23-11-1.42.16-1.49,1-1.21,2.16.88,3.59,1.48,7.26,2.56,10.79,2.28,7.4,4.68,14.76,10.36,20.5,6.9,7,17.87,10.61,26.85,4.91,11.4,12.26,18,26.58,18.45,43.46.2,7.85,0,15.72,0,23.58v12.55l-1.14.21a152.94,152.94,0,0,0-10.16-14,12.76,12.76,0,0,0,1.41-5.83c0-15.59-8.44-26-21.46-32.79-15.12-7.89-31.44-7.06-47.76-4.82-2.47.34-2.59,1.34-1.94,3.39,2.77,8.67,5.69,17.28,9.26,25.65,4,9.28,9.74,17.11,18.43,22.59,10.26,6.46,26.39,7.53,35.45-.2a71.88,71.88,0,0,1,16.49,32.77c-.43,1.42-.57,2.78.84,3.81l.11,1.34c-.82,1.67-1.26,3.31.38,4.79q.06,21.59.14,43.17c-.45.54-.42,1,.24,1.34a.34.34,0,0,1,.15.35C1121.71,802.11,1122.24,803,1123.94,802.77Z" transform="translate(-978.87 -516.55)"/><path class="cls-2" d="M990.78,763.91v-9.1c0-37.95.16-75.9-.16-113.84-.06-7,2.78-11.49,8.09-15.13,2.5-1.71,5.52-4.57,8-3.46,2,.92.75,5.11.75,7.84,0,40.87,0,81.74,0,122.61,0,2.69-1.25,3.83-3.57,4.23C999.06,757.88,995.07,760.27,990.78,763.91Z" transform="translate(-978.87 -516.55)"/><path class="cls-3" d="M1258.2,843.48c-3.91,5.37-7.46,11.12-13.41,14.55-5.19,3-10.69,5.1-16.86,5.1q-87.09-.06-174.19,0c-3,0-5.13-.87-5.56-4s1.6-4.55,4.46-5.21a21.88,21.88,0,0,1,5-.34q82.88,0,165.74,0c10.73,0,19.52-4.41,26.85-12a17.71,17.71,0,0,0,3.91-7.72l0,.13.71-.66c.82-1,1.65-2.07,2.48-3.11l.84.44A99.86,99.86,0,0,1,1258.2,843.48Z" transform="translate(-978.87 -516.55)"/><path class="cls-2" d="M991.13,582.88c-1.25-21-.82-30.37,15.27-43.14.79.15.63.81.64,1.32q.15,15,.28,30.05c0,1.16.39,2.45-1.38,3C1000.46,575.71,995.8,578.83,991.13,582.88Z" transform="translate(-978.87 -516.55)"/><path class="cls-2" d="M990.81,841.7c0-9,0-17.17,0-25.33,0-2.47,1.79-4.06,3.32-5.68,3.07-3.26,6.92-5.3,11-7,1.57-.64,2.21-.46,2.21,1.4q0,12.32.11,24.63A2,2,0,0,1,1006,832C1000.26,833.65,995.45,836.8,990.81,841.7Z" transform="translate(-978.87 -516.55)"/><path class="cls-2" d="M990.72,618.57c0-5.4.12-10.23,0-15-.21-6.56,3.75-10.75,8.56-13.81,8-5.09,8.16-4.8,8.17,4.62,0,4.16,0,8.31,0,12.46,0,1.07.34,2.36-1.19,2.78a26.94,26.94,0,0,0-7.92,3.61C995.89,614.8,993.58,616.53,990.72,618.57Z" transform="translate(-978.87 -516.55)"/><path class="cls-2" d="M990.85,799.05c0-6.4-.08-12,0-17.54.06-2.76,1.84-4.73,3.68-6.6,3.51-3.59,8-5.58,12.82-7.53,0,7.24,0,14.38,0,21.53,0,.92-.14,1.86-1.25,2.13C1000.62,792.37,995.79,795.09,990.85,799.05Z" transform="translate(-978.87 -516.55)"/><path class="cls-2" d="M1254.86,833.32l-.71.66C1254.16,833.53,1254.43,833.33,1254.86,833.32Z" transform="translate(-978.87 -516.55)"/><path class="cls-1" d="M1146.79,717.1l-.8,1.15c-8.43,11.1-13.68,23.46-14,37.5-.28,13.49,0,27,0,40.5,0,5.8-2.23,7.62-8,6.51h0l-1.91-2.23a.34.34,0,0,0-.15-.35l-.24-1.34q-.08-21.58-.14-43.17c.17-1.62.48-3.25-.38-4.79l-.11-1.34a6.2,6.2,0,0,0-.84-3.81A71.88,71.88,0,0,0,1103.68,713c-8.1-10.5-18.87-17.49-30.57-23.23-3.53-1.73-7.13-3.33-10.59-5.18-2-1.08-3.29-2.86-2.43-5.31a4.75,4.75,0,0,1,5.48-3.45,13.16,13.16,0,0,1,2.62.63A106.47,106.47,0,0,1,1090.35,687c7.72,4.82,13.91,11.32,19.94,18a152.94,152.94,0,0,1,10.16,14l1.14-.21V706.27c0-7.86.19-15.73,0-23.58-.44-16.88-7-31.2-18.45-43.46-3.37-4.25-7.54-7.67-11.6-11.19a106.67,106.67,0,0,0-12.11-9c-2.29-1.47-3-3.59-1.81-6.11,1.32-2.75,3.6-2.16,5.8-1.39a16.8,16.8,0,0,1,3,1.48,107.54,107.54,0,0,1,22.48,18.42l12.23,15.66c1-.67.43-1.64.43-2.41,0-11.47,0-22.93,0-34.4,0-1.33.23-2.71-.59-3.92.12-1.22.33-2.44.33-3.66,0-7-.09-13.93-.09-20.89a16.62,16.62,0,0,1,.38-4c.71-2.81,2.46-4.68,5.54-4.24a5.31,5.31,0,0,1,4.84,5.21c.09,1.12,0,2.25,0,3.37q.12,12.12.22,24.25l-.07,1.27v2q0,17.22,0,34.45c0,.47-.81,1.21.41,1.31,2.67-1.9,3.9-5,6-7.36s4.15-4.88,6.22-7.33c2.88-2.83,5.67-5.75,8.66-8.46a55.27,55.27,0,0,1,16.94-10.82c2.38-.93,4.77-1.15,6.08,1.58s-.21,4.52-2.35,5.94c-.93.62-2,1-2.94,1.63-7.93,5-15.44,10.39-21.1,18-4.84,4-7.77,9.55-11.07,14.74-5.53,8.71-7.25,18.36-7.11,28.55.18,13,0,26.05,0,39.85l10.81-15.33A82.36,82.36,0,0,1,1166.76,685a109.93,109.93,0,0,1,20.35-8.92c3.39-1.13,6.19.15,7.3,2.92,1,2.55-.25,4.87-3.67,6.6-1,.5-2,.92-3.09,1.35a111.59,111.59,0,0,0-16.91,8.35c-9,5.65-17,12.44-23.35,21.09h0Z" transform="translate(-978.87 -516.55)"/><path class="cls-3" d="M1110.29,705c-6-6.68-12.22-13.18-19.94-18a106.47,106.47,0,0,0-22.16-10.55,13.16,13.16,0,0,0-2.62-.63,4.75,4.75,0,0,0-5.48,3.45c-.86,2.45.41,4.23,2.43,5.31,3.46,1.85,7.06,3.45,10.59,5.18,11.7,5.74,22.47,12.73,30.57,23.23-9.06,7.73-25.19,6.66-35.45.2-8.69-5.48-14.46-13.31-18.43-22.59-3.57-8.37-6.49-17-9.26-25.65-.65-2-.53-3,1.94-3.39,16.32-2.24,32.64-3.07,47.76,4.82,13,6.78,21.41,17.2,21.46,32.79A12.76,12.76,0,0,1,1110.29,705Z" transform="translate(-978.87 -516.55)"/><path class="cls-3" d="M1147.39,716.34c6.31-8.65,14.32-15.44,23.35-21.09a111.59,111.59,0,0,1,16.91-8.35c1-.43,2.09-.85,3.09-1.35,3.42-1.73,4.7-4,3.67-6.6-1.11-2.77-3.91-4.05-7.3-2.92a109.93,109.93,0,0,0-20.35,8.92,82.36,82.36,0,0,0-23.94,21.48c-.5-4.23-1.21-8.45-.51-12.74,2.4-14.7,11.78-23.52,24.77-29.16,6.87-3,14.15-4,21.65-4.34,6.66-.32,13.18.44,19.75.87,4.7.32,5.3.94,3.82,5.34-4.3,12.73-7.54,26-16,36.89-6.35,8.21-14.77,12.81-25,14.57-6.8,1.17-13.18.44-19.18-3C1150,713.55,1149.22,716.6,1147.39,716.34Z" transform="translate(-978.87 -516.55)"/><path class="cls-3" d="M1150.14,638.62c5.66-7.6,13.17-13,21.1-18,1-.59,2-1,2.94-1.63,2.14-1.42,3.62-3.3,2.35-5.94s-3.7-2.51-6.08-1.58a55.27,55.27,0,0,0-16.94,10.82c-3,2.71-5.78,5.63-8.66,8.46-3.95-15,7.67-26,22.36-29.08a73.68,73.68,0,0,1,18.74-1.43c4.87.22,5.24.71,4,5.43-2.5,9.1-4.85,18.22-10.5,26.09-6.07,8.48-16.65,12.3-26.05,9.06C1152.07,640.4,1150.73,640.05,1150.14,638.62Z" transform="translate(-978.87 -516.55)"/><path class="cls-3" d="M1108.9,631.41A107.54,107.54,0,0,0,1086.42,613a16.8,16.8,0,0,0-3-1.48c-2.2-.77-4.48-1.36-5.8,1.39-1.21,2.52-.48,4.64,1.81,6.11a106.67,106.67,0,0,1,12.11,9c4.06,3.52,8.23,6.94,11.6,11.19-9,5.7-20,2.07-26.85-4.91-5.68-5.74-8.08-13.1-10.36-20.5-1.08-3.53-1.68-7.2-2.56-10.79-.28-1.18-.21-2,1.21-2.16,14.57-1.66,28.44-.11,39.23,11C1108.88,617.08,1111.3,623.82,1108.9,631.41Z" transform="translate(-978.87 -516.55)"/><path class="cls-3" d="M1132.26,606.39q-.1-12.12-.22-24.25c0-1.12,0-2.25,0-3.37a5.31,5.31,0,0,0-4.84-5.21c-3.08-.44-4.83,1.43-5.54,4.24a16.62,16.62,0,0,0-.38,4c0,7,.08,13.93.09,20.89,0,1.22-.21,2.44-.33,3.66-7.19-3.69-10.94-9.52-11.43-17.65-.77-12.68,5.11-22.78,12.47-32.16,4.58-5.84,4.91-5.58,9.38.34a85.91,85.91,0,0,1,10.69,18.63,27.11,27.11,0,0,1-.32,21.93A16,16,0,0,1,1132.26,606.39Z" transform="translate(-978.87 -516.55)"/><path class="cls-3" d="M1123.92,802.76c5.82,1.11,8.06-.71,8-6.51,0-13.5-.24-27,0-40.5.3-14,5.55-26.4,14-37.5.24,2.31,0,4.49-1.56,6.36-.42.49-1,1.26-.86,1.78.75,3.77-1.18,6.41-3.5,9a1.78,1.78,0,0,0-.45,1.88c1,2.23-.53,3.71-1.7,5.12a19.75,19.75,0,0,0-4.81,13.9c.3,13.39.09,26.79.1,40.18,0,2.57-.34,5-2.64,6.59S1126.05,805,1123.92,802.76Z" transform="translate(-978.87 -516.55)"/><path class="cls-3" d="M1121.12,750.89c.86,1.54.55,3.17.38,4.79C1119.86,754.2,1120.3,752.56,1121.12,750.89Z" transform="translate(-978.87 -516.55)"/><path class="cls-3" d="M1120.17,745.74a6.2,6.2,0,0,1,.84,3.81C1119.6,748.52,1119.74,747.16,1120.17,745.74Z" transform="translate(-978.87 -516.55)"/><path class="cls-3" d="M1122,800.54l1.91,2.23C1122.24,803,1121.71,802.11,1122,800.54Z" transform="translate(-978.87 -516.55)"/><path class="cls-3" d="M1132.2,609.69v-2A1.44,1.44,0,0,1,1132.2,609.69Z" transform="translate(-978.87 -516.55)"/><path class="cls-3" d="M1132.63,645.45c-1.22-.1-.36-.84-.41-1.31C1132.36,644.58,1132.49,645,1132.63,645.45Z" transform="translate(-978.87 -516.55)"/><path class="cls-3" d="M1121.64,798.85l.24,1.34C1121.22,799.84,1121.19,799.39,1121.64,798.85Z" transform="translate(-978.87 -516.55)"/><path class="cls-3" d="M1146.79,717.1l.6-.75Z" transform="translate(-978.87 -516.55)"/></svg>